HIERARCHY
ROOT joint_Root
{
	OFFSET 0.0 0.0 0.0
	CHANNELS 6 Xposition Yposition Zposition Zrotation Xrotation Yrotation 
	JOINT Hips
	{
		OFFSET -17.1583 93.1646 452.98
		CHANNELS 6 Xposition Yposition Zposition Zrotation Xrotation Yrotation 
		JOINT Spine
		{
			OFFSET 15.7357 0.0 0.0
			CHANNELS 6 Xposition Yposition Zposition Zrotation Xrotation Yrotation 
			JOINT Chest
			{
				OFFSET 8.98455 -0.406207 0.0
				CHANNELS 6 Xposition Yposition Zposition Zrotation Xrotation Yrotation 
				JOINT Neck
				{
					OFFSET 16.3773 0.0 0.0
					CHANNELS 6 Xposition Yposition Zposition Zrotation Xrotation Yrotation 
					JOINT Head
					{
						OFFSET 6.45672 0.0 0.0
						CHANNELS 6 Xposition Yposition Zposition Zrotation Xrotation Yrotation 
						End Site
						{
							OFFSET 0.0 0.0 0.0
						}
					}
				}
				JOINT Shoulder_L
				{
					OFFSET 12.9942 -0.242716 4.98039
					CHANNELS 6 Xposition Yposition Zposition Zrotation Xrotation Yrotation 
					JOINT UpperArm_L
					{
						OFFSET 5.34809 0.0 0.0
						CHANNELS 6 Xposition Yposition Zposition Zrotation Xrotation Yrotation 
						JOINT LowerArm_L
						{
							OFFSET 24.3286 1.87007e-05 0.0
							CHANNELS 6 Xposition Yposition Zposition Zrotation Xrotation Yrotation 
							JOINT Hand_L
							{
								OFFSET 22.2916 0.0 0.0
								CHANNELS 6 Xposition Yposition Zposition Zrotation Xrotation Yrotation 
								End Site
								{
									OFFSET 0.0 0.0 0.0
								}
							}
						}
					}
				}
				JOINT Shoulder_R
				{
					OFFSET 12.9945 -0.242716 -4.98039
					CHANNELS 6 Xposition Yposition Zposition Zrotation Xrotation Yrotation 
					JOINT UpperArm_R
					{
						OFFSET -5.34813 0.0 0.0
						CHANNELS 6 Xposition Yposition Zposition Zrotation Xrotation Yrotation 
						JOINT LowerArm_R
						{
							OFFSET -24.3289 0.000322201 0.0
							CHANNELS 6 Xposition Yposition Zposition Zrotation Xrotation Yrotation 
							JOINT Hand_R
							{
								OFFSET -22.2915 -0.000108084 0.0
								CHANNELS 6 Xposition Yposition Zposition Zrotation Xrotation Yrotation 
								End Site
								{
									OFFSET 0.0 0.0 0.0
								}
							}
						}
					}
				}
			}
		}
		JOINT UpperLeg_L
		{
			OFFSET -2.19248 -6.46944 0.0
			CHANNELS 6 Xposition Yposition Zposition Zrotation Xrotation Yrotation 
			JOINT LowerLeg_L
			{
				OFFSET 39.0811 0.0 -1.23785e-05
				CHANNELS 6 Xposition Yposition Zposition Zrotation Xrotation Yrotation 
				JOINT Foot_L
				{
					OFFSET 40.9854 0.0 -1.26872e-05
					CHANNELS 6 Xposition Yposition Zposition Zrotation Xrotation Yrotation 
					JOINT Toes_L
					{
						OFFSET 11.7543 0.0 0.0
						CHANNELS 6 Xposition Yposition Zposition Zrotation Xrotation Yrotation 
						End Site
						{
							OFFSET 0.0 0.0 0.0
						}
					}
				}
			}
		}
		JOINT UpperLeg_R
		{
			OFFSET -2.19251 6.46944 0.0
			CHANNELS 6 Xposition Yposition Zposition Zrotation Xrotation Yrotation 
			JOINT LowerLeg_R
			{
				OFFSET -39.0811 -0.00228153 -0.0401928
				CHANNELS 6 Xposition Yposition Zposition Zrotation Xrotation Yrotation 
				JOINT Foot_R
				{
					OFFSET -40.9854 0.0 0.0
					CHANNELS 6 Xposition Yposition Zposition Zrotation Xrotation Yrotation 
					JOINT Toes_R
					{
						OFFSET -11.7543 0.0 0.0
						CHANNELS 6 Xposition Yposition Zposition Zrotation Xrotation Yrotation 
						End Site
						{
							OFFSET 0.0 0.0 0.0
						}
					}
				}
			}
		}
	}
}
MOTION
Frames:	6
Frame Time:	0.0333333
0.000000 0.000000 0.000000 0.000000 0.000000 -0.000000 -3.989790 91.587300 -0.323903 82.833700 -2.727990 3.299180 15.735700 0.000005 -0.000001 92.142400 87.615000 -89.241600 8.984550 -0.406207 -0.000000 -2.990340 -0.093827 5.799920 16.377300 -0.000001 -0.000001 12.408900 2.263430 -7.794120 6.456720 -0.000001 -0.000000 8.907000 -0.460004 -20.674800 12.994200 -0.242716 4.980390 -93.105400 8.640670 -70.144800 5.348090 -0.000007 -0.000001 -72.360300 9.780540 2.243580 24.328600 0.000019 0.000005 37.297400 -40.544000 -130.477000 22.291600 -0.000001 0.000005 45.533100 4.969890 7.951050 12.994500 -0.242716 -4.980390 88.544200 4.351370 -71.481300 -5.348130 -0.000001 -0.000004 -71.978300 30.732100 -3.001150 -24.328900 0.000322 -0.000009 2.270440 8.043610 -15.826700 -22.291500 -0.000108 -0.000004 1.566940 5.250540 1.418260 -2.192480 -6.469440 -0.000000 -170.037000 0.812450 -4.923710 39.081100 -0.000007 -0.000012 0.450856 -0.768978 30.384600 40.985400 -0.000006 -0.000013 0.243193 7.241000 -77.823400 11.754300 -0.000000 0.000003 -0.000135 0.169868 -9.686950 -2.192510 6.469440 -0.000001 -167.938000 6.342780 -177.044000 -39.081100 -0.002282 -0.040193 0.139355 -0.478914 15.856400 -40.985400 0.000008 0.000006 6.287920 0.952711 -71.582000 -11.754300 -0.000006 -0.000006 -0.012508 0.289179 -4.819300
0.000000 0.000000 0.000000 0.000000 0.000000 -0.000000 -3.930610 91.588100 -0.330796 82.857900 -2.730010 3.234350 15.735700 0.000005 -0.000001 92.622000 87.612300 -89.728500 8.984550 -0.406207 -0.000000 -2.987650 -0.052961 5.786390 16.377300 -0.000001 -0.000001 12.421800 2.232740 -7.739490 6.456720 -0.000001 -0.000000 8.854190 -0.479240 -20.622700 12.994200 -0.242716 4.980390 -93.103300 8.625230 -70.124600 5.348090 -0.000007 -0.000001 -72.339800 9.863310 2.152850 24.328600 0.000019 0.000005 37.746300 -40.801700 -130.166000 22.291600 -0.000001 0.000005 45.722500 4.956370 8.233530 12.994500 -0.242716 -4.980390 88.549300 4.332500 -71.466800 -5.348130 -0.000001 -0.000004 -71.981100 30.904300 -3.095320 -24.328900 0.000322 -0.000009 2.302290 8.116970 -15.900800 -22.291500 -0.000108 -0.000004 1.511690 5.248340 1.476720 -2.192480 -6.469440 -0.000000 -170.114000 0.794118 -4.998570 39.081100 -0.000007 -0.000012 0.453488 -0.773413 30.386300 40.985400 -0.000006 -0.000013 0.281841 7.195470 -77.772700 11.754300 -0.000000 0.000003 0.000057 0.166662 -9.817140 -2.192510 6.469440 -0.000001 -167.990000 6.337460 -177.144000 -39.081100 -0.002282 -0.040193 0.141649 -0.484775 15.925200 -40.985400 0.000008 0.000006 6.259730 0.983042 -71.600500 -11.754300 -0.000006 -0.000006 -0.011996 0.285662 -4.963360
0.000000 0.000000 0.000000 0.000000 0.000000 -0.000000 -3.880880 91.597500 -0.313271 82.868800 -2.695950 3.242140 15.735700 0.000005 -0.000001 92.605600 87.586800 -89.711800 8.984550 -0.406207 -0.000000 -2.936750 -0.050756 5.786850 16.377300 -0.000001 -0.000001 12.470000 2.207560 -7.738800 6.456720 -0.000001 -0.000000 8.782820 -0.504596 -20.540200 12.994200 -0.242716 4.980390 -93.118200 8.670070 -70.131300 5.348090 -0.000007 -0.000001 -72.233600 9.706800 2.134060 24.328600 0.000019 0.000005 37.211100 -40.449200 -130.510000 22.291600 -0.000001 0.000005 45.695700 4.973040 7.887290 12.994500 -0.242716 -4.980390 88.540000 4.357000 -71.453900 -5.348130 -0.000001 -0.000004 -71.936400 30.963400 -3.196030 -24.328900 0.000322 -0.000009 2.262900 7.949490 -15.952800 -22.291500 -0.000108 -0.000004 1.615920 5.252320 1.371450 -2.192480 -6.469440 -0.000000 -170.164000 0.841273 -4.965880 39.081100 -0.000007 -0.000012 0.451820 -0.772014 30.339500 40.985400 -0.000006 -0.000013 0.313507 7.181070 -77.779800 11.754300 -0.000000 0.000003 -0.000131 0.169808 -9.689370 -2.192510 6.469440 -0.000001 -168.061000 6.452710 -177.113000 -39.081100 -0.002282 -0.040193 0.140251 -0.481171 15.884500 -40.985400 0.000008 0.000006 6.227420 1.061020 -71.587400 -11.754300 -0.000006 -0.000006 -0.012272 0.287561 -4.885560
0.000000 0.000000 0.000000 0.000000 0.000000 -0.000000 -3.835900 91.608900 -0.313816 82.863900 -2.660000 3.151580 15.735700 0.000005 -0.000001 92.702200 87.587700 -89.804600 8.984550 -0.406207 -0.000000 -2.939060 -0.043117 5.794730 16.377300 -0.000001 -0.000001 12.444200 2.182400 -7.714110 6.456720 -0.000001 -0.000000 8.756910 -0.537174 -20.492900 12.994200 -0.242716 4.980390 -93.108200 8.639080 -70.124800 5.348090 -0.000007 -0.000001 -72.267800 9.680010 2.118380 24.328600 0.000019 0.000005 37.391000 -40.467500 -130.336000 22.291600 -0.000001 0.000005 45.768800 4.968780 7.976090 12.994500 -0.242716 -4.980390 88.527400 4.383940 -71.412300 -5.348130 -0.000001 -0.000004 -71.865800 31.051000 -3.309200 -24.328900 0.000322 -0.000009 2.244830 7.835790 -16.048300 -22.291500 -0.000108 -0.000004 1.592350 5.252840 1.357710 -2.192480 -6.469440 -0.000000 -170.187000 0.833577 -5.051810 39.081100 -0.000007 -0.000012 0.449148 -0.768655 30.300200 40.985400 -0.000006 -0.000013 0.349411 7.196040 -77.740800 11.754300 -0.000000 0.000003 -0.000152 0.170152 -9.675390 -2.192510 6.469440 -0.000001 -168.085000 6.453690 -177.175000 -39.081100 -0.002282 -0.040193 0.138594 -0.477224 15.825200 -40.985400 0.000008 0.000006 6.197420 1.096800 -71.584900 -11.754300 -0.000006 -0.000006 -0.012280 0.287615 -4.883380
0.000000 0.000000 0.000000 0.000000 0.000000 -0.000000 -3.775600 91.615600 -0.295476 82.894000 -2.691430 3.147540 15.735700 0.000005 -0.000001 92.828800 87.567800 -89.931900 8.984550 -0.406207 -0.000000 -2.900220 -0.029465 5.793590 16.377300 -0.000001 -0.000001 12.471800 2.144490 -7.703420 6.456720 -0.000001 -0.000000 8.704020 -0.554070 -20.502100 12.994200 -0.242716 4.980390 -93.116400 8.653220 -70.106400 5.348090 -0.000007 -0.000001 -72.256400 9.540420 2.128580 24.328600 0.000019 0.000005 37.403200 -40.391800 -130.280000 22.291600 -0.000001 0.000005 45.675800 4.962200 8.113020 12.994500 -0.242716 -4.980390 88.522300 4.396700 -71.402500 -5.348130 -0.000001 -0.000004 -71.808300 31.137400 -3.382460 -24.328900 0.000322 -0.000009 2.215320 7.666680 -16.177500 -22.291500 -0.000108 -0.000004 1.713980 5.252060 1.378150 -2.192480 -6.469440 -0.000000 -170.267000 0.805469 -5.008760 39.081100 -0.000007 -0.000012 0.452961 -0.776734 30.250300 40.985400 -0.000006 -0.000013 0.399067 7.195970 -77.745300 11.754300 -0.000000 0.000003 -0.000108 0.169422 -9.705070 -2.192510 6.469440 -0.000001 -168.131000 6.254620 -177.183000 -39.081100 -0.002282 -0.040193 0.138530 -0.476287 15.847600 -40.985400 0.000008 0.000006 6.127360 0.942818 -71.563800 -11.754300 -0.000006 -0.000006 -0.012421 0.288585 -4.843640
0.000000 0.000000 0.000000 0.000000 0.000000 -0.000000 -3.713110 91.634400 -0.285333 82.930600 -2.665190 3.078810 15.735700 0.000005 -0.000001 92.558000 87.566200 -89.658600 8.984550 -0.406207 -0.000000 -2.895390 -0.052399 5.798140 16.377300 -0.000001 -0.000001 12.487100 2.148140 -7.701260 6.456720 -0.000001 -0.000000 8.645870 -0.544258 -20.500900 12.994200 -0.242716 4.980390 -93.123100 8.662930 -70.087000 5.348090 -0.000007 -0.000001 -72.300800 9.468530 2.154740 24.328600 0.000019 0.000005 37.795600 -40.526700 -129.958000 22.291600 -0.000001 0.000005 45.656300 4.949390 8.376840 12.994500 -0.242716 -4.980390 88.517700 4.405340 -71.382200 -5.348130 -0.000001 -0.000004 -71.716700 31.195000 -3.486430 -24.328900 0.000322 -0.000009 2.232570 7.679010 -16.272200 -22.291500 -0.000108 -0.000004 1.643680 5.253170 1.348870 -2.192480 -6.469440 -0.000000 -170.339000 0.762294 -5.024440 39.081100 -0.000007 -0.000012 0.444344 -0.765498 30.134800 40.985400 -0.000006 -0.000013 0.438828 7.190740 -77.655700 11.754300 -0.000000 0.000003 -0.000065 0.168715 -9.733760 -2.192510 6.469440 -0.000001 -168.180000 6.125200 -177.195000 -39.081100 -0.002282 -0.040193 0.136650 -0.473115 15.737700 -40.985400 0.000008 0.000006 6.071410 0.840804 -71.480800 -11.754300 -0.000006 -0.000006 -0.012167 0.286845 -4.914910
